<svg width="128" height="128" viewBox="0 0 128 128" fill="none" xmlns="http://www.w3.org/2000/svg">
<path d="M0 8C0 3.58172 3.58172 0 8 0H120C124.418 0 128 3.58172 128 8V120C128 124.418 124.418 128 120 128H8C3.58172 128 0 124.418 0 120V8Z" fill="#121A24"/>
<path fill-rule="evenodd" clip-rule="evenodd" d="M84.7102 54.8047C83.6655 55.3022 83 56.3561 83 57.5132V70.4868C83 71.6439 83.6655 72.6978 84.7102 73.1953L95.7826 78.4679C97.2758 79.1789 99 78.0903 99 76.4365V51.5635C99 49.9098 97.2758 48.8211 95.7826 49.5321L84.7102 54.8047Z" fill="#1BEBB9"/>
<path fill-rule="evenodd" clip-rule="evenodd" d="M30 51C30 47.6863 32.6863 45 36 45H72C75.3137 45 78 47.6863 78 51V77C78 80.3137 75.3137 83 72 83H36C32.6863 83 30 80.3137 30 77V51Z" fill="white"/>
</svg>
